<svg id="Layer_1" data-name="Layer 1" xmlns="http://www.w3.org/2000/svg" viewBox="0 0 612 792"><defs><style>.cls-1{fill:#fff;}</style></defs><path class="cls-1" d="M482.28,434.61c-6.79,24.47-20.43,30.07-42.54,17.44-17.83-10.2-35.72-20.29-53.35-30.8a10.64,10.64,0,0,1-4.53-7.61q-.48-41.91,0-83.84a10.68,10.68,0,0,1,4.43-7.7c17.7-10.64,35.63-20.92,53.58-31.13,22-12.53,35.49-7,42.41,17.4Z"/><path class="cls-1" d="M234.59,481.24H154c-27,0-44.28-14.73-44.78-41.56-.89-46.78-.47-93.59.42-140.38.39-20.22,18.54-36.63,38.9-36.71q86.07-.36,172.15,0c22.53.11,39.62,18,39.66,40.64q.12,68.38,0,136.77c0,23.45-17.62,41.08-41.13,41.19C291,481.34,262.8,481.24,234.59,481.24Z"/></svg>